<?xml version="1.0" standalone="no"?><svg xmlns="http://www.w3.org/2000/svg" viewBox="0 0 1440 320"><path fill="#a2d9ff" fill-opacity="1" d="M0,160L12.6,160C25.3,160,51,160,76,165.3C101.1,171,126,181,152,176C176.8,171,202,149,227,154.7C252.6,160,278,192,303,192C328.4,192,354,160,379,128C404.2,96,429,64,455,69.3C480,75,505,117,531,112C555.8,107,581,53,606,74.7C631.6,96,657,192,682,218.7C707.4,245,733,203,758,192C783.2,181,808,203,834,224C858.9,245,884,267,909,266.7C934.7,267,960,245,985,218.7C1010.5,192,1036,160,1061,144C1086.3,128,1112,128,1137,149.3C1162.1,171,1187,213,1213,229.3C1237.9,245,1263,235,1288,208C1313.7,181,1339,139,1364,133.3C1389.5,128,1415,160,1427,176L1440,192L1440,0L1427.4,0C1414.7,0,1389,0,1364,0C1338.9,0,1314,0,1288,0C1263.2,0,1238,0,1213,0C1187.4,0,1162,0,1137,0C1111.6,0,1086,0,1061,0C1035.8,0,1011,0,985,0C960,0,935,0,909,0C884.2,0,859,0,834,0C808.4,0,783,0,758,0C732.6,0,707,0,682,0C656.8,0,632,0,606,0C581.1,0,556,0,531,0C505.3,0,480,0,455,0C429.5,0,404,0,379,0C353.7,0,328,0,303,0C277.9,0,253,0,227,0C202.1,0,177,0,152,0C126.3,0,101,0,76,0C50.5,0,25,0,13,0L0,0Z"></path></svg>